<svg xmlns="http://www.w3.org/2000/svg" xmlns:xlink="http://www.w3.org/1999/xlink" width="500" zoomAndPan="magnify" viewBox="0 0 375 374.999991" height="500" preserveAspectRatio="xMidYMid meet" version="1.0"><defs><g/></defs><g fill="#ffffff" fill-opacity="1"><g transform="translate(50.698939, 249.410559)"><g><path d="M 101.21875 -28.921875 C 101.21875 -27.179688 100.492188 -24.578125 99.046875 -21.109375 C 97.609375 -17.640625 95.828125 -14.023438 93.703125 -10.265625 C 91.578125 -6.503906 89.503906 -3.320312 87.484375 -0.71875 C 85.460938 1.882812 83.96875 3.1875 83 3.1875 C 73.9375 3.1875 64.875 2.554688 55.8125 1.296875 C 46.75 0.046875 35.664062 -0.675781 22.5625 -0.875 C 24.875 10.695312 27.617188 22.507812 30.796875 34.5625 C 33.984375 46.613281 37.503906 59.289062 41.359375 72.59375 C 38.847656 75.476562 36.335938 78.125 33.828125 80.53125 C 31.328125 82.945312 28.4375 85.503906 25.15625 88.203125 L 22.265625 88.203125 C 20.722656 77.597656 19.273438 66.703125 17.921875 55.515625 C 16.578125 44.335938 15.519531 34.363281 14.75 25.59375 C 13.976562 16.820312 13.59375 10.796875 13.59375 7.515625 C 13.59375 6.359375 14.171875 4.285156 15.328125 1.296875 C 16.484375 -1.691406 17.925781 -4.867188 19.65625 -8.234375 C 21.394531 -11.609375 23.128906 -14.5 24.859375 -16.90625 C 26.597656 -19.320312 27.953125 -20.53125 28.921875 -20.53125 C 36.628906 -20.53125 43.566406 -20.289062 49.734375 -19.8125 C 55.910156 -19.332031 62.273438 -18.800781 68.828125 -18.21875 C 75.378906 -17.644531 82.992188 -17.359375 91.671875 -17.359375 C 87.429688 -34.515625 81.789062 -47.1875 74.75 -55.375 C 67.71875 -63.570312 60.828125 -67.671875 54.078125 -67.671875 C 48.484375 -67.671875 43.710938 -65.304688 39.765625 -60.578125 C 35.816406 -55.859375 33.164062 -50.125 31.8125 -43.375 L 28.921875 -43.375 C 28.921875 -56.675781 31.765625 -67.425781 37.453125 -75.625 C 43.140625 -83.820312 49.9375 -87.921875 57.84375 -87.921875 C 64.976562 -87.921875 71.582031 -85.125 77.65625 -79.53125 C 83.726562 -73.9375 88.882812 -66.65625 93.125 -57.6875 C 97.363281 -48.726562 100.0625 -39.140625 101.21875 -28.921875 Z M 101.21875 -28.921875 "/></g></g></g><g fill="#ffffff" fill-opacity="1"><g transform="translate(162.90723, 249.410559)"><g><path d="M 86.1875 -69.984375 L 79.234375 -72.59375 C 82.898438 -64.6875 85.984375 -57.066406 88.484375 -49.734375 C 90.992188 -42.410156 92.25 -37.113281 92.25 -33.84375 C 92.25 -32.488281 91.71875 -30.21875 90.65625 -27.03125 C 89.601562 -23.851562 88.304688 -20.476562 86.765625 -16.90625 C 85.222656 -13.34375 83.675781 -10.257812 82.125 -7.65625 C 80.582031 -5.0625 79.234375 -3.664062 78.078125 -3.46875 C 73.648438 -2.507812 68.347656 -1.691406 62.171875 -1.015625 C 56.003906 -0.335938 50.125 0 44.53125 0 C 31.226562 0 21.300781 -2.019531 14.75 -6.0625 C 8.195312 -10.113281 4.921875 -16.960938 4.921875 -26.609375 C 4.921875 -29.492188 5.304688 -32.816406 6.078125 -36.578125 C 6.847656 -40.335938 8.003906 -44.34375 9.546875 -48.59375 L 12.4375 -48 C 12.050781 -45.882812 11.757812 -43.671875 11.5625 -41.359375 C 11.375 -39.046875 11.28125 -37.117188 11.28125 -35.578125 C 11.28125 -30.171875 14.648438 -26.3125 21.390625 -24 C 28.140625 -21.6875 36.816406 -20.53125 47.421875 -20.53125 C 53.015625 -20.53125 59.085938 -20.960938 65.640625 -21.828125 C 72.203125 -22.703125 78.375 -23.910156 84.15625 -25.453125 C 79.914062 -34.316406 75.191406 -44.003906 69.984375 -54.515625 C 64.773438 -65.023438 59.378906 -75.582031 53.796875 -86.1875 L 48.875 -90.234375 C 52.34375 -98.328125 56.582031 -105.171875 61.59375 -110.765625 L 64.5 -110.765625 C 68.15625 -105.554688 71.863281 -99.816406 75.625 -93.546875 C 79.382812 -87.285156 83.578125 -80.007812 88.203125 -71.71875 Z M 86.1875 -69.984375 "/></g></g></g><g fill="#ffffff" fill-opacity="1"><g transform="translate(266.728815, 249.410559)"><g><path d="M 56.6875 -196.078125 L 58.703125 -193.765625 C 55.429688 -188.753906 51.914062 -184.800781 48.15625 -181.90625 C 44.394531 -179.019531 40.585938 -177.578125 36.734375 -177.578125 C 33.640625 -177.578125 30.359375 -178.296875 26.890625 -179.734375 C 23.421875 -181.179688 19.179688 -183.546875 14.171875 -186.828125 L -1.734375 -177 L -3.765625 -179.015625 C -1.054688 -185.179688 1.882812 -190.097656 5.0625 -193.765625 C 8.238281 -197.429688 11.660156 -199.265625 15.328125 -199.265625 C 18.023438 -199.265625 20.484375 -198.632812 22.703125 -197.375 C 24.921875 -196.125 27.378906 -194.820312 30.078125 -193.46875 C 32.773438 -192.125 36.050781 -191.453125 39.90625 -191.453125 C 42.601562 -191.453125 45.445312 -191.835938 48.4375 -192.609375 C 51.425781 -193.378906 54.175781 -194.535156 56.6875 -196.078125 Z M 25.15625 -163.6875 L 28.046875 -163.6875 C 30.742188 -157.519531 33.394531 -150.4375 36 -142.4375 C 38.601562 -134.4375 41.0625 -125.90625 43.375 -116.84375 L 41.359375 -115.390625 L 35.578125 -120.3125 C 36.347656 -109.707031 36.925781 -99.101562 37.3125 -88.5 C 37.695312 -77.894531 37.984375 -68.300781 38.171875 -59.71875 C 38.367188 -51.132812 38.46875 -44.4375 38.46875 -39.625 C 38.46875 -32.875 37.066406 -25.691406 34.265625 -18.078125 C 31.472656 -10.460938 28.050781 -3.375 24 3.1875 L 21.109375 3.1875 C 21.492188 -1.25 21.78125 -5.972656 21.96875 -10.984375 C 22.164062 -16.003906 22.265625 -20.632812 22.265625 -24.875 C 22.265625 -40.488281 21.832031 -57.742188 20.96875 -76.640625 C 20.101562 -95.535156 18.316406 -116.644531 15.609375 -139.96875 L 12.71875 -143.4375 C 16 -151.34375 20.144531 -158.09375 25.15625 -163.6875 Z M 25.15625 -163.6875 "/></g></g></g></svg>